# xmcd CD database file
#
# Track frame offsets:
#	150
#	13591
#	51000
#	77821
#	117332
#	146724
#	163905
#	181552
#	212483
#	253943
#
# Disc length: 3856 seconds
#
# Revision: 0
# Processed by: cddbd v1.5.2PL0 Copyright (c) Steve Scherf et al.
# Submitted via: CDex 1.81
#
DISCID=850f0e0a
DTITLE=Preston Glasgow Lowe - Preston Glasgow Lowe
DYEAR=2016
DGENRE=Jazz
TTITLE0=Colour Possesses
TTITLE1=Elephant and Castle
TTITLE2=Everything in Everything
TTITLE3=The Priory
TTITLE4=Song to the Citadel
TTITLE5=C:/>PU
TTITLE6=Within You pt1
TTITLE7=Within You pt2
TTITLE8=Within You pt3
TTITLE9=The Anvil
EXTD=YEAR: 2016
EXTT0=
EXTT1=
EXTT2=
EXTT3=
EXTT4=
EXTT5=
EXTT6=
EXTT7=
EXTT8=
EXTT9=
PLAYORDER=
